<svg width="56" height="46" viewBox="0 0 56 46" fill="none" xmlns="http://www.w3.org/2000/svg">
<rect x="0.5" width="55" height="46" rx="8" fill="#0F62FE"/>
<path d="M19.2322 15.3281H17.3658C17.3317 15.0866 17.2621 14.8722 17.157 14.6847C17.0518 14.4943 16.9169 14.3324 16.7521 14.1989C16.5874 14.0653 16.397 13.9631 16.1811 13.892C15.968 13.821 15.7365 13.7855 15.4865 13.7855C15.0348 13.7855 14.6413 13.8977 14.3061 14.1222C13.9709 14.3437 13.7109 14.6676 13.5263 15.0938C13.3416 15.517 13.2493 16.0312 13.2493 16.6364C13.2493 17.2585 13.3416 17.7812 13.5263 18.2045C13.7138 18.6278 13.9751 18.9474 14.3104 19.1634C14.6456 19.3793 15.0334 19.4872 15.4737 19.4872C15.7209 19.4872 15.9496 19.4545 16.1598 19.3892C16.3729 19.3239 16.5618 19.2287 16.7266 19.1037C16.8913 18.9759 17.0277 18.821 17.1357 18.6392C17.2464 18.4574 17.3232 18.25 17.3658 18.017L19.2322 18.0256C19.1839 18.4261 19.0632 18.8125 18.87 19.1847C18.6797 19.554 18.4226 19.8849 18.0987 20.1776C17.7777 20.4673 17.3942 20.6974 16.9482 20.8679C16.505 21.0355 16.0036 21.1193 15.4439 21.1193C14.6655 21.1193 13.9695 20.9432 13.3558 20.5909C12.745 20.2386 12.2621 19.7287 11.907 19.0611C11.5547 18.3935 11.3786 17.5852 11.3786 16.6364C11.3786 15.6847 11.5575 14.875 11.9155 14.2074C12.2734 13.5398 12.7592 13.0312 13.3729 12.6818C13.9865 12.3295 14.6768 12.1534 15.4439 12.1534C15.9496 12.1534 16.4183 12.2244 16.8501 12.3665C17.2848 12.5085 17.6697 12.7159 18.005 12.9886C18.3402 13.2585 18.6129 13.5895 18.8232 13.9815C19.0362 14.3736 19.1726 14.8224 19.2322 15.3281ZM21.8956 21H19.9183L22.9311 12.2727H25.3089L28.3175 21H26.3402L24.1541 14.267H24.0859L21.8956 21ZM21.772 17.5696H26.4425V19.0099H21.772V17.5696ZM33.9031 14.7827C33.869 14.4389 33.7227 14.1719 33.4641 13.9815C33.2056 13.7912 32.8548 13.696 32.4116 13.696C32.1104 13.696 31.8562 13.7386 31.6488 13.8239C31.4414 13.9062 31.2823 14.0213 31.1715 14.169C31.0636 14.3168 31.0096 14.4844 31.0096 14.6719C31.0039 14.8281 31.0366 14.9645 31.1076 15.081C31.1815 15.1974 31.2823 15.2983 31.4102 15.3835C31.538 15.4659 31.6857 15.5384 31.8533 15.6009C32.021 15.6605 32.1999 15.7116 32.3903 15.7543L33.1744 15.9418C33.555 16.027 33.9045 16.1406 34.2227 16.2827C34.5408 16.4247 34.8164 16.5994 35.0494 16.8068C35.2823 17.0142 35.4627 17.2585 35.5906 17.5398C35.7212 17.821 35.788 18.1435 35.7908 18.5071C35.788 19.0412 35.6516 19.5043 35.3817 19.8963C35.1147 20.2855 34.7283 20.5881 34.2227 20.804C33.7198 21.017 33.1133 21.1236 32.4031 21.1236C31.6985 21.1236 31.0849 21.0156 30.5621 20.7997C30.0423 20.5838 29.636 20.2642 29.3434 19.8409C29.0536 19.4148 28.9016 18.8878 28.8874 18.2599H30.6729C30.6928 18.5526 30.7766 18.7969 30.9244 18.9929C31.0749 19.1861 31.2752 19.3324 31.5252 19.4318C31.7781 19.5284 32.0636 19.5767 32.3817 19.5767C32.6942 19.5767 32.9656 19.5312 33.1957 19.4403C33.4286 19.3494 33.609 19.223 33.7369 19.0611C33.8647 18.8991 33.9286 18.7131 33.9286 18.5028C33.9286 18.3068 33.8704 18.142 33.7539 18.0085C33.6403 17.875 33.4727 17.7614 33.2511 17.6676C33.0323 17.5739 32.7638 17.4886 32.4457 17.4119L31.4954 17.1733C30.7596 16.9943 30.1786 16.7145 29.7525 16.3338C29.3263 15.9531 29.1147 15.4403 29.1175 14.7955C29.1147 14.267 29.2553 13.8054 29.5394 13.4105C29.8263 13.0156 30.2198 12.7074 30.7198 12.4858C31.2198 12.2642 31.788 12.1534 32.4244 12.1534C33.0721 12.1534 33.6374 12.2642 34.1204 12.4858C34.6062 12.7074 34.984 13.0156 35.2539 13.4105C35.5238 13.8054 35.663 14.2628 35.6715 14.7827H33.9031ZM37.032 21V12.2727H38.8771V15.8736H42.6229V12.2727H44.4638V21H42.6229V17.3949H38.8771V21H37.032ZM11.8601 34V25.2727H15.3544C15.9964 25.2727 16.532 25.3679 16.9609 25.5582C17.3899 25.7486 17.7124 26.0128 17.9283 26.3509C18.1442 26.6861 18.2521 27.0724 18.2521 27.5099C18.2521 27.8509 18.1839 28.1506 18.0476 28.4091C17.9112 28.6648 17.7237 28.875 17.4851 29.0398C17.2493 29.2017 16.9794 29.3168 16.6754 29.3849V29.4702C17.0078 29.4844 17.3189 29.5781 17.6087 29.7514C17.9013 29.9247 18.1385 30.1676 18.3203 30.4801C18.5021 30.7898 18.593 31.1591 18.593 31.5881C18.593 32.0511 18.478 32.4645 18.2479 32.8281C18.0206 33.1889 17.6839 33.4744 17.2379 33.6847C16.7919 33.8949 16.2422 34 15.5888 34H11.8601ZM13.7053 32.4915H15.2095C15.7237 32.4915 16.0987 32.3935 16.3345 32.1974C16.5703 31.9986 16.6882 31.7344 16.6882 31.4048C16.6882 31.1634 16.63 30.9503 16.5135 30.7656C16.397 30.581 16.2308 30.4361 16.0149 30.331C15.8018 30.2259 15.5476 30.1733 15.2521 30.1733H13.7053V32.4915ZM13.7053 28.9247H15.0732C15.326 28.9247 15.5504 28.8807 15.7464 28.7926C15.9453 28.7017 16.1016 28.5739 16.2152 28.4091C16.3317 28.2443 16.3899 28.0469 16.3899 27.8168C16.3899 27.5014 16.2777 27.2472 16.0533 27.054C15.8317 26.8608 15.5163 26.7642 15.1072 26.7642H13.7053V28.9247ZM21.2979 34H19.3207L22.3335 25.2727H24.7113L27.7198 34H25.7425L23.5565 27.267H23.4883L21.2979 34ZM21.1744 30.5696H25.8448V32.0099H21.1744V30.5696ZM36.0604 28.3281H34.1939C34.1598 28.0866 34.0902 27.8722 33.9851 27.6847C33.88 27.4943 33.745 27.3324 33.5803 27.1989C33.4155 27.0653 33.2251 26.9631 33.0092 26.892C32.7962 26.821 32.5646 26.7855 32.3146 26.7855C31.8629 26.7855 31.4695 26.8977 31.1342 27.1222C30.799 27.3437 30.5391 27.6676 30.3544 28.0938C30.1697 28.517 30.0774 29.0312 30.0774 29.6364C30.0774 30.2585 30.1697 30.7812 30.3544 31.2045C30.5419 31.6278 30.8033 31.9474 31.1385 32.1634C31.4737 32.3793 31.8615 32.4872 32.3018 32.4872C32.549 32.4872 32.7777 32.4545 32.9879 32.3892C33.201 32.3239 33.3899 32.2287 33.5547 32.1037C33.7195 31.9759 33.8558 31.821 33.9638 31.6392C34.0746 31.4574 34.1513 31.25 34.1939 31.017L36.0604 31.0256C36.0121 31.4261 35.8913 31.8125 35.6982 32.1847C35.5078 32.554 35.2507 32.8849 34.9268 33.1776C34.6058 33.4673 34.2223 33.6974 33.7763 33.8679C33.3331 34.0355 32.8317 34.1193 32.272 34.1193C31.4936 34.1193 30.7976 33.9432 30.1839 33.5909C29.5732 33.2386 29.0902 32.7287 28.7351 32.0611C28.3828 31.3935 28.2067 30.5852 28.2067 29.6364C28.2067 28.6847 28.3857 27.875 28.7436 27.2074C29.1016 26.5398 29.5874 26.0312 30.201 25.6818C30.8146 25.3295 31.505 25.1534 32.272 25.1534C32.7777 25.1534 33.2464 25.2244 33.6783 25.3665C34.1129 25.5085 34.4979 25.7159 34.8331 25.9886C35.1683 26.2585 35.4411 26.5895 35.6513 26.9815C35.8643 27.3736 36.0007 27.8224 36.0604 28.3281ZM37.3835 34V25.2727H39.2287V29.1207H39.3438L42.4844 25.2727H44.696L41.4574 29.1804L44.7344 34H42.527L40.1364 30.4119L39.2287 31.5199V34H37.3835Z" fill="white"/>
</svg>
