<svg width="268" height="32" viewBox="0 0 268 32" fill="none" xmlns="http://www.w3.org/2000/svg">
<path d="M68.082 13.9947H69.9463H71.8165V7.02369V0.000976562H69.9493H68.082V6.99754V13.9947Z" fill="white"/>
<path d="M66.1258 4.51915C66.1258 1.84046 64.2086 0.000976562 61.1332 0.000976562H53.0449V13.9947H56.7794V9.09674H58.1373L62.3913 13.9947H67.0246L62.3913 8.93687C64.7275 8.43762 66.1258 6.7182 66.1258 4.51915ZM60.6938 5.99845H56.7794V3.1795H60.6938C61.8118 3.1795 62.3711 3.83922 62.3711 4.59878C62.3711 5.37856 61.8118 5.99845 60.6938 5.99845Z" fill="white"/>
<path d="M77.5275 7.11721V6.85689C77.5275 4.77789 78.6858 3.27837 81.0827 3.27837H85.2363V0H80.7626C76.1494 0 73.793 2.95862 73.793 6.85689V7.13683C73.793 11.4749 76.4689 13.9937 80.5833 13.9937H81.861L83.359 10.8152H81.1622C78.9257 10.8158 77.5275 9.55638 77.5275 7.11721Z" fill="white"/>
<path d="M6.17112 0.000976562L0 13.9947H4.11388L5.29242 11.1561H11.7628L12.9609 13.9947H17.1745L11.004 0.000976562H6.17112ZM6.5707 8.07745L8.5276 3.39941L10.4851 8.07745H6.5707Z" fill="white"/>
<path d="M26.9417 8.81681L23.7463 0.000976562H17.875V13.9947H21.5495V3.91946L25.2437 13.9947H28.559L32.2537 3.91946V13.9947H35.9282V0.000976562H30.1169L26.9417 8.81681Z" fill="white"/>
<path d="M38.7812 13.9947H50.604V10.8162H42.5152V8.57729H50.4039V5.39877H42.5152V3.1795H50.604V0.000976562H38.7812V13.9947Z" fill="white"/>
<path d="M89.7707 0.000976562L83.5996 13.9947H87.7135L88.892 11.1561H95.3624L96.5605 13.9947H100.774L94.603 0.000976562H89.7707ZM90.1697 8.07745L92.1266 3.39941L94.0841 8.07745H90.1697Z" fill="white"/>
<path d="M111.878 8.53747L106.186 0.000976562H101.473V13.9947H105.188V5.13845L111.058 13.9947H115.572V0.000976562H111.878V8.53747Z" fill="white"/>
<path d="M99.5836 23.4036H96.1489C95.4103 23.4036 94.8706 22.9638 94.8706 22.2839C94.8706 21.6242 95.4097 21.1844 96.1489 21.1844H102.36L103.818 18.0059H96.1293C92.9541 18.0059 91.1367 19.8852 91.1367 22.404C91.1367 25.0428 92.8941 26.5822 95.63 26.5822H99.0653C99.8228 26.5822 100.343 27.022 100.343 27.7019C100.343 28.3818 99.8234 28.8211 99.0653 28.8211H91.5755V31.9996H99.0837C102.22 31.9996 104.077 30.1607 104.077 27.4618C104.077 24.9032 102.439 23.4036 99.5836 23.4036Z" fill="white"/>
<path d="M75.7898 22.524C75.7898 19.8453 73.8727 18.0059 70.7972 18.0059H62.709V31.9996H66.4435V27.1016H67.8013L72.0553 31.9996H76.6887L72.0553 26.9418C74.3916 26.4425 75.7898 24.7231 75.7898 22.524ZM70.3573 24.0033H66.4429V21.1844H70.3573C71.4758 21.1844 72.0345 21.8441 72.0345 22.6037C72.0351 23.384 71.4758 24.0033 70.3573 24.0033Z" fill="white"/>
<path d="M77.7461 32.0002H89.5688V28.8211H81.4806V26.5822H89.3687V23.4036H81.4806V21.1844H89.5688V18.0059H77.7461V32.0002Z" fill="white"/>
<path d="M56.1177 18.0059H47.9297V31.9996H51.6642V27.4416H55.9977C59.1528 27.4416 61.1103 25.4422 61.1103 22.7237C61.1103 19.925 59.1931 18.0059 56.1177 18.0059ZM55.6783 24.2637H51.6642V21.185H55.6783C56.7969 21.185 57.3556 21.8845 57.3556 22.7445C57.3556 23.5837 56.7963 24.2637 55.6783 24.2637Z" fill="white"/>
<path d="M113.317 23.4036H109.882C109.143 23.4036 108.603 22.9638 108.603 22.2839C108.603 21.6242 109.143 21.1844 109.882 21.1844H116.092L117.55 18.0059H109.862C106.687 18.0059 104.869 19.8852 104.869 22.404C104.869 25.0428 106.626 26.5822 109.362 26.5822H112.797C113.556 26.5822 114.076 27.022 114.076 27.7019C114.076 28.3818 113.556 28.8211 112.797 28.8211H105.308V31.9996H112.817C115.952 31.9996 117.81 30.1607 117.81 27.4618C117.81 24.9032 116.172 23.4036 113.317 23.4036Z" fill="white"/>
<path d="M17.875 32.0002H29.6971V28.8211H21.6095V26.5822H29.4977V23.4036H21.6095V21.1844H29.6971V18.0059H17.875V32.0002Z" fill="white"/>
<path d="M47.2492 18.0059H42.4965L38.8617 22.2239L35.227 18.0059H30.3543L36.5052 24.9228L30.2344 32.0002H34.9871L38.8018 27.5616L42.6158 32.0002H47.4891L41.1784 24.8431L47.2492 18.0059Z" fill="white"/>
<path d="M265.53 16.3693L267.99 16.0013V28.4941H265.53V16.3693Z" fill="white"/>
<path d="M165.049 0.0524998C161.914 0.0524998 158.94 0.972294 156.419 2.68639C156.419 2.68639 156.225 2.81402 155.919 3.04219C155.889 3.065 155.859 3.08711 155.83 3.10921C155.713 3.19762 155.587 3.29602 155.447 3.40797C155.422 3.42793 155.395 3.44647 155.371 3.46715C155.373 3.46572 155.376 3.46501 155.377 3.46501C154.676 4.03114 153.751 4.86752 153.01 5.84934H153.012C150.869 8.53814 149.702 11.8508 149.702 15.3197C149.702 19.2498 151.197 22.9789 153.915 25.8281C153.974 25.8638 154.033 25.8966 154.092 25.9294C154.149 25.9636 154.207 25.9985 154.265 26.0306C154.329 26.067 154.394 26.0998 154.459 26.1347C154.516 26.1668 154.576 26.1982 154.635 26.2288C154.7 26.2631 154.764 26.293 154.83 26.3265C154.891 26.355 154.951 26.3864 155.011 26.4149C155.077 26.4456 155.143 26.4748 155.209 26.5041C155.27 26.5326 155.331 26.5604 155.393 26.5875C155.46 26.6153 155.527 26.6424 155.594 26.6695C155.656 26.6952 155.719 26.7223 155.781 26.7465C155.848 26.7722 155.916 26.7971 155.984 26.8214C156.046 26.8456 156.109 26.8713 156.174 26.892C156.242 26.9155 156.31 26.9376 156.378 26.9604C156.442 26.9825 156.506 27.0039 156.571 27.0246C156.64 27.0474 156.709 27.0659 156.777 27.0866C156.843 27.1051 156.907 27.1251 156.973 27.1444C157.043 27.1636 157.113 27.18 157.184 27.1985C157.249 27.2149 157.313 27.2335 157.378 27.2477C157.448 27.2663 157.521 27.2813 157.592 27.2969C157.657 27.3112 157.722 27.3262 157.786 27.3397C157.858 27.3547 157.932 27.3675 158.004 27.3818C158.068 27.3932 158.133 27.4068 158.199 27.4182C158.273 27.4303 158.348 27.4417 158.423 27.4524C158.486 27.4624 158.551 27.4731 158.614 27.4816C158.692 27.4923 158.769 27.5002 158.847 27.5094C158.909 27.5166 158.97 27.5251 159.032 27.5322C159.114 27.5387 159.197 27.5458 159.279 27.5529C159.335 27.5565 159.394 27.5636 159.453 27.5672C159.548 27.5729 159.644 27.5779 159.738 27.5814C159.783 27.585 159.828 27.5871 159.873 27.5886C160.014 27.5928 160.156 27.5957 160.298 27.5957C161.905 27.5957 163.468 27.2927 164.945 26.6952C166.583 26.0321 168.049 25.0317 169.257 23.7618C169.659 23.3397 170.032 22.8855 170.374 22.4056C170.457 22.2894 170.538 22.1711 170.616 22.052C170.641 22.0178 170.663 21.9807 170.686 21.945C170.744 21.8573 170.8 21.7675 170.855 21.6776C170.875 21.642 170.899 21.6063 170.919 21.5707C170.991 21.4502 171.062 21.329 171.129 21.2056C171.137 21.1914 171.145 21.1764 171.153 21.1614C171.214 21.0516 171.272 20.9397 171.328 20.8292C171.346 20.7899 171.365 20.7529 171.384 20.7158C171.433 20.6167 171.48 20.5183 171.527 20.4185C171.54 20.3885 171.555 20.3571 171.568 20.3265C171.624 20.2038 171.677 20.0791 171.727 19.955C171.431 20.3771 171.091 20.7743 170.71 21.14C169.182 22.6081 167.172 23.4174 165.049 23.4174C162.925 23.4174 160.913 22.6081 159.387 21.14C157.863 19.6748 156.983 17.7111 156.909 15.6084C156.907 15.5407 156.909 15.4758 156.909 15.4109L156.909 15.3197C156.909 15.2248 156.911 15.1293 156.913 15.0337H156.909C156.922 14.4662 156.975 13.9036 157.06 13.3489C157.06 13.3453 157.061 13.3403 157.062 13.3375C157.084 13.1949 157.108 13.0544 157.135 12.9125C157.14 12.884 157.146 12.8555 157.153 12.8269C157.174 12.7179 157.197 12.608 157.222 12.4997C157.234 12.4426 157.246 12.3856 157.26 12.3285C157.277 12.2622 157.293 12.1952 157.31 12.1282C157.335 12.0319 157.361 11.9371 157.388 11.8423C157.403 11.7909 157.416 11.7396 157.431 11.6875C157.464 11.5806 157.497 11.4743 157.532 11.3667C157.545 11.326 157.559 11.2854 157.573 11.2455C157.61 11.13 157.651 11.0159 157.694 10.9025C157.704 10.8704 157.717 10.8383 157.729 10.807C157.774 10.6872 157.822 10.5681 157.871 10.449C157.881 10.4234 157.891 10.3984 157.903 10.3727C157.954 10.2508 158.009 10.1275 158.064 10.0062C158.074 9.98556 158.082 9.9656 158.091 9.94563C158.15 9.82014 158.21 9.69465 158.273 9.57059L158.297 9.52353C158.362 9.39661 158.429 9.27112 158.499 9.14563C158.506 9.13351 158.514 9.12067 158.521 9.10641C158.592 8.97949 158.664 8.85329 158.74 8.72851C158.746 8.71853 158.751 8.70997 158.758 8.69928C158.835 8.57236 158.914 8.44544 158.998 8.31924C159.002 8.31282 159.006 8.30783 159.01 8.30213C159.094 8.17236 159.182 8.04473 159.272 7.91781C159.358 7.79731 159.445 7.68038 159.535 7.56273C159.564 7.52422 159.594 7.48715 159.624 7.44936C159.685 7.37164 159.746 7.29321 159.807 7.21834C159.844 7.17342 159.883 7.13064 159.919 7.08643C159.975 7.01798 160.034 6.94953 160.092 6.88322C160.132 6.83687 160.173 6.79195 160.214 6.74775C160.272 6.68286 160.33 6.62012 160.388 6.55808C160.43 6.51316 160.473 6.46824 160.516 6.42404C160.576 6.36272 160.634 6.30282 160.694 6.24293C160.738 6.19943 160.783 6.15594 160.827 6.11316C160.889 6.05398 160.95 5.9948 161.013 5.93776C161.058 5.89569 161.102 5.85362 161.147 5.81369C161.212 5.75594 161.276 5.6989 161.344 5.64186C161.388 5.60264 161.433 5.56413 161.477 5.52563C161.547 5.46788 161.618 5.41084 161.689 5.35379C161.731 5.31886 161.773 5.28392 161.816 5.25041C161.898 5.18552 161.98 5.1242 162.064 5.06146C162.097 5.03721 162.13 5.01083 162.163 4.9873C162.281 4.8996 162.4 4.81618 162.52 4.73418C162.537 4.72348 162.554 4.71279 162.568 4.7021C162.673 4.63222 162.779 4.56234 162.886 4.49461C162.927 4.46823 162.971 4.44255 163.014 4.41689C163.096 4.36626 163.176 4.31564 163.259 4.26858C163.309 4.23863 163.359 4.21082 163.41 4.1823C163.43 4.17018 163.452 4.15878 163.473 4.14737C163.845 3.9413 164.68 3.50921 165.7 3.15983C165.708 3.1577 165.716 3.15484 165.723 3.1527C165.771 3.13559 165.818 3.12133 165.865 3.10565C165.915 3.08925 165.967 3.07356 166.017 3.05859C166.064 3.04433 166.11 3.03007 166.156 3.01509C166.21 3.00083 166.261 2.98586 166.314 2.9716C166.36 2.95876 166.406 2.94522 166.453 2.9331C166.504 2.91955 166.557 2.90529 166.611 2.89245C166.656 2.88033 166.703 2.86893 166.75 2.85752C166.801 2.8454 166.851 2.83327 166.902 2.82186C166.951 2.81117 166.998 2.79905 167.048 2.78907C167.101 2.77695 167.156 2.76625 167.21 2.75555C167.256 2.74628 167.302 2.73559 167.348 2.72775C167.403 2.71705 167.458 2.70778 167.513 2.6978C167.559 2.68924 167.603 2.6814 167.65 2.67284C167.705 2.665 167.761 2.65573 167.817 2.64789C167.862 2.63933 167.908 2.63363 167.953 2.62579C168.009 2.61865 168.066 2.61152 168.123 2.60511C168.167 2.59797 168.213 2.59227 168.258 2.58657C168.315 2.57944 168.373 2.57516 168.43 2.56874C168.475 2.56304 168.519 2.55805 168.563 2.55306C168.623 2.54807 168.683 2.54379 168.743 2.53951C168.785 2.53523 168.828 2.53095 168.871 2.52953C168.934 2.52453 168.996 2.52097 169.058 2.51741C169.099 2.51455 169.138 2.51241 169.18 2.51099C169.249 2.50671 169.319 2.50457 169.389 2.50386C169.422 2.50315 169.455 2.50029 169.488 2.49887C169.593 2.49744 169.697 2.49673 169.799 2.49673C169.932 2.49673 170.064 2.49815 170.196 2.50315C170.233 2.50386 170.269 2.50457 170.308 2.506C170.412 2.51099 170.517 2.51598 170.62 2.52168C170.651 2.52454 170.681 2.52596 170.71 2.5281C170.841 2.53737 170.972 2.54807 171.103 2.56233C171.129 2.56446 171.158 2.56803 171.186 2.57088C171.292 2.58158 171.396 2.59441 171.501 2.60796C171.538 2.61295 171.575 2.61794 171.612 2.62293C171.735 2.63933 171.857 2.65858 171.978 2.67998C171.986 2.6814 171.993 2.68211 172.002 2.68283C172.131 2.70564 172.258 2.73131 172.388 2.75627C172.422 2.7634 172.458 2.77124 172.492 2.77837C172.593 2.79976 172.693 2.82329 172.795 2.84539C172.825 2.85395 172.856 2.85966 172.887 2.86821C173.014 2.89887 173.139 2.93167 173.265 2.96589C173.288 2.97302 173.313 2.97944 173.336 2.98657C173.441 3.01581 173.543 3.04646 173.647 3.07926C173.682 3.08996 173.717 3.10065 173.753 3.11278C173.863 3.14771 173.974 3.18479 174.082 3.22329C174.097 3.22828 174.112 3.23256 174.127 3.23755C174.249 3.28033 174.37 3.32668 174.49 3.37374C174.526 3.388 174.559 3.40084 174.592 3.41438C174.637 3.43078 174.683 3.44861 174.726 3.46715C172.002 1.25251 168.63 0.0524998 165.049 0.0524998Z" fill="white"/>
<path d="M165.506 30.9316C168.641 30.9316 171.615 30.0133 174.136 28.2985C174.136 28.2985 174.33 28.1708 174.636 27.942C174.666 27.9198 174.696 27.897 174.725 27.8749C174.842 27.7872 174.969 27.6888 175.108 27.5769C175.134 27.5569 175.16 27.5377 175.185 27.5177C175.183 27.5191 175.18 27.5191 175.178 27.5198C175.879 26.9537 176.805 26.1166 177.545 25.1348H177.543C179.686 22.446 180.853 19.134 180.853 15.6645C180.853 11.735 179.358 8.00524 176.64 5.15673C176.581 5.12107 176.522 5.08828 176.463 5.05476C176.406 5.02054 176.349 4.9856 176.291 4.95352C176.226 4.91787 176.161 4.88435 176.097 4.85013C176.039 4.81733 175.979 4.78595 175.92 4.75529C175.856 4.72107 175.791 4.69112 175.725 4.65833C175.665 4.62909 175.604 4.59772 175.544 4.5692C175.478 4.53854 175.412 4.5093 175.346 4.48007C175.285 4.45226 175.224 4.42374 175.162 4.39665C175.095 4.36884 175.028 4.34175 174.961 4.31536C174.899 4.2897 174.836 4.2626 174.774 4.23836C174.707 4.21198 174.64 4.18773 174.571 4.16278C174.509 4.13853 174.446 4.11358 174.381 4.09219C174.313 4.06866 174.245 4.04727 174.177 4.02445C174.113 4.00235 174.05 3.98024 173.985 3.95957C173.915 3.93746 173.846 3.91892 173.778 3.89824C173.712 3.87971 173.648 3.85903 173.582 3.84049C173.513 3.82124 173.442 3.80413 173.371 3.78559C173.307 3.76991 173.242 3.75137 173.177 3.73639C173.107 3.71785 173.034 3.70288 172.963 3.68791C172.898 3.67365 172.833 3.65796 172.769 3.64512C172.697 3.62944 172.623 3.61732 172.551 3.60377C172.487 3.59094 172.422 3.5781 172.356 3.56669C172.283 3.55457 172.207 3.54316 172.132 3.53175C172.069 3.5232 172.005 3.51179 171.942 3.50323C171.863 3.49254 171.786 3.48398 171.708 3.47471C171.646 3.46758 171.585 3.45903 171.523 3.45261C171.441 3.44548 171.359 3.43835 171.277 3.43193C171.22 3.42765 171.161 3.42124 171.103 3.41767C171.007 3.41125 170.912 3.40697 170.817 3.40341C170.772 3.39985 170.727 3.39771 170.682 3.39557C170.541 3.39129 170.399 3.38844 170.258 3.38844C168.651 3.38844 167.088 3.69218 165.61 4.28969C163.972 4.9528 162.506 5.95317 161.299 7.22305C160.896 7.64516 160.523 8.09864 160.181 8.5785C160.098 8.69544 160.018 8.81309 159.939 8.93216C159.914 8.96638 159.893 9.00346 159.87 9.03911C159.811 9.12753 159.756 9.21665 159.701 9.30649C159.68 9.34214 159.656 9.3778 159.636 9.41416C159.564 9.53466 159.493 9.65587 159.426 9.77851C159.418 9.79277 159.41 9.80846 159.403 9.82272C159.341 9.93253 159.284 10.0445 159.227 10.1557C159.209 10.1942 159.191 10.2313 159.171 10.2691C159.122 10.3675 159.075 10.4666 159.029 10.5657C159.015 10.5963 159 10.627 158.988 10.6577C158.931 10.781 158.879 10.9051 158.829 11.0291C159.125 10.6078 159.465 10.2099 159.845 9.84411C161.373 8.376 163.383 7.56673 165.506 7.56673C167.63 7.56673 169.642 8.376 171.168 9.84411C172.693 11.3101 173.572 13.2737 173.646 15.3764C173.648 15.4442 173.647 15.509 173.647 15.5732L173.646 15.6645C173.646 15.76 173.645 15.8549 173.642 15.9504H173.646C173.634 16.5187 173.58 17.0805 173.495 17.636C173.495 17.6388 173.494 17.6438 173.493 17.6467C173.471 17.7893 173.447 17.9305 173.421 18.0716C173.415 18.1002 173.41 18.1287 173.403 18.1572C173.381 18.267 173.359 18.3761 173.334 18.4852C173.321 18.5415 173.309 18.5986 173.295 18.6556C173.278 18.7226 173.262 18.7889 173.245 18.8567C173.22 18.9522 173.194 19.0478 173.168 19.1426C173.153 19.1939 173.139 19.2453 173.124 19.2966C173.091 19.4043 173.058 19.5105 173.023 19.6175C173.011 19.6581 172.996 19.6995 172.983 19.7394C172.945 19.8542 172.904 19.9683 172.862 20.0816C172.851 20.1137 172.838 20.1465 172.826 20.1779C172.781 20.2977 172.733 20.416 172.684 20.5358C172.674 20.5608 172.664 20.5857 172.652 20.6114C172.601 20.734 172.546 20.8574 172.492 20.9786C172.482 20.9986 172.473 21.0193 172.464 21.0385C172.405 21.1647 172.345 21.2902 172.282 21.4136L172.258 21.4613C172.193 21.5882 172.126 21.7137 172.057 21.8392C172.049 21.8521 172.042 21.8642 172.034 21.8777C171.963 22.0054 171.891 22.1316 171.816 22.2556C171.809 22.2656 171.804 22.2749 171.797 22.2849C171.72 22.4125 171.641 22.5394 171.557 22.6649C171.554 22.6713 171.55 22.677 171.545 22.6827C171.461 22.8125 171.374 22.9394 171.283 23.067C171.197 23.1868 171.11 23.3045 171.021 23.4214C170.991 23.4606 170.961 23.497 170.932 23.5348C170.87 23.6132 170.81 23.6909 170.748 23.7665C170.711 23.8107 170.673 23.8542 170.636 23.8984C170.58 23.9662 170.521 24.0346 170.463 24.1016C170.423 24.1473 170.382 24.1922 170.341 24.2364C170.283 24.3013 170.226 24.364 170.167 24.4261C170.126 24.4717 170.082 24.5166 170.039 24.5608C169.98 24.6221 169.921 24.682 169.861 24.7419C169.817 24.7847 169.772 24.8289 169.728 24.8717C169.667 24.9302 169.605 24.9893 169.542 25.0464C169.498 25.0885 169.453 25.1305 169.408 25.1712C169.343 25.2282 169.279 25.286 169.212 25.3423C169.167 25.3815 169.123 25.4207 169.078 25.4585C169.008 25.517 168.937 25.574 168.867 25.6311C168.824 25.666 168.782 25.7002 168.74 25.7337C168.658 25.7986 168.576 25.8607 168.492 25.9227C168.459 25.9469 168.425 25.9733 168.392 25.9968C168.274 26.0845 168.155 26.168 168.036 26.2507C168.018 26.2607 168.002 26.2713 167.987 26.282C167.883 26.3526 167.776 26.4225 167.669 26.4902C167.628 26.5166 167.584 26.5423 167.541 26.568C167.46 26.6179 167.379 26.6685 167.296 26.7163C167.246 26.7462 167.197 26.774 167.145 26.8025C167.125 26.8147 167.103 26.8254 167.083 26.8375C166.71 27.0428 165.875 27.4749 164.855 27.8243C164.847 27.8272 164.839 27.8293 164.832 27.8314C164.785 27.8493 164.737 27.8635 164.69 27.8785C164.64 27.8949 164.588 27.9113 164.538 27.9256C164.491 27.9405 164.445 27.9541 164.399 27.9698C164.345 27.984 164.294 27.9983 164.241 28.0125C164.195 28.0261 164.149 28.0389 164.102 28.0518C164.052 28.0646 163.998 28.0789 163.945 28.0917C163.899 28.1038 163.853 28.1159 163.806 28.1266C163.754 28.1395 163.704 28.1516 163.653 28.163C163.604 28.1737 163.557 28.1851 163.507 28.1951C163.454 28.2079 163.399 28.2186 163.346 28.2293C163.299 28.2386 163.253 28.2486 163.207 28.2571C163.152 28.2678 163.097 28.2764 163.043 28.2863C162.996 28.2956 162.952 28.3027 162.905 28.3113C162.85 28.3199 162.794 28.3291 162.738 28.3363C162.694 28.3448 162.648 28.3512 162.603 28.3584C162.546 28.3655 162.489 28.3726 162.432 28.3797C162.388 28.3869 162.342 28.3926 162.297 28.3976C162.24 28.4047 162.182 28.4097 162.125 28.4161C162.08 28.4211 162.037 28.4261 161.992 28.4311C161.932 28.4361 161.873 28.4411 161.813 28.4453C161.771 28.4496 161.727 28.4532 161.684 28.4546C161.622 28.4603 161.56 28.4632 161.497 28.4674C161.457 28.4703 161.418 28.4724 161.376 28.4739C161.306 28.4781 161.237 28.4803 161.167 28.481C161.133 28.4817 161.1 28.4838 161.067 28.4853C160.963 28.4874 160.859 28.4881 160.756 28.4881C160.623 28.4881 160.491 28.486 160.359 28.4817C160.322 28.481 160.286 28.4803 160.248 28.4789C160.143 28.4739 160.039 28.4682 159.935 28.4625C159.905 28.4603 159.874 28.4582 159.845 28.4568C159.714 28.4468 159.583 28.4361 159.453 28.4218C159.426 28.4204 159.397 28.4168 159.369 28.414C159.264 28.4026 159.159 28.3904 159.054 28.3762C159.018 28.3719 158.98 28.3662 158.944 28.3612C158.82 28.3448 158.698 28.3256 158.577 28.3042C158.569 28.3027 158.562 28.302 158.553 28.3013C158.424 28.2785 158.297 28.2535 158.167 28.2286C158.133 28.2207 158.098 28.2129 158.064 28.2065C157.962 28.1844 157.862 28.1616 157.761 28.1395C157.731 28.1302 157.699 28.1245 157.669 28.1166C157.541 28.086 157.416 28.0525 157.291 28.0182C157.267 28.0111 157.242 28.0054 157.219 27.9983C157.115 27.969 157.013 27.9384 156.908 27.9056C156.874 27.8942 156.838 27.8842 156.802 27.8721C156.692 27.8364 156.581 27.7993 156.473 27.7616C156.458 27.7566 156.444 27.7516 156.429 27.7466C156.307 27.7038 156.185 27.6575 156.065 27.6111C156.029 27.5969 155.997 27.584 155.963 27.5698C155.918 27.5541 155.873 27.5355 155.829 27.5177C158.553 29.7323 161.925 30.9316 165.506 30.9316Z" fill="white"/>
<path d="M197.661 11.6393C197.661 13.8611 196.092 15.0361 193.487 15.0361H188.243V3.25136H193.405C195.784 3.25136 197.241 4.29807 197.241 6.50344C197.241 7.67849 196.431 8.58046 195.59 8.85355C196.513 9.06317 197.661 9.99723 197.661 11.6393ZM190.801 5.39255V8.12983H192.953C194.036 8.12983 194.684 7.61432 194.684 6.76155C194.684 5.69844 193.939 5.39255 193.114 5.39255H190.801ZM195.072 11.4939C195.072 10.5933 194.458 10.0293 193.357 10.0293H190.801V12.927H193.39C194.393 12.927 195.072 12.5249 195.072 11.4939Z" fill="white"/>
<path d="M204.634 13.9894C204.084 14.7623 203.064 15.1973 201.818 15.1973C199.795 15.1973 198.339 14.2147 198.339 12.3473C198.339 10.3994 200.248 9.41682 202.093 9.41682C202.918 9.41682 203.728 9.53019 204.569 9.77119C204.601 8.38651 203.841 7.79114 202.513 7.79114C201.284 7.79114 199.989 8.17759 199.423 8.45139L198.824 6.66457C199.665 6.26243 201.154 5.73051 202.87 5.73051C205.75 5.73051 207.028 7.1316 207.028 9.91594V15.0361H204.65L204.634 13.9894ZM204.569 11.8325V11.2208C203.987 11.0111 203.371 10.9149 202.724 10.9149C201.673 10.9149 200.799 11.3491 200.799 12.1698C200.799 13.0076 201.575 13.4418 202.513 13.4418C203.598 13.4418 204.569 12.9106 204.569 11.8325Z" fill="white"/>
<path d="M217.379 9.64286V15.0361H214.919V10.0136C214.919 8.67672 214.126 7.93589 212.961 7.93589C211.699 7.93589 210.761 8.80649 210.761 10.0293V15.0361H208.302V5.90807H210.761V7.27635C211.505 6.51984 212.573 5.73053 213.98 5.73053C215.988 5.73053 217.379 7.19578 217.379 9.64286Z" fill="white"/>
<path d="M223.094 5.73072C225.182 5.73072 226.703 6.87369 227.317 8.30614L225.214 9.19171C224.842 8.51577 224.194 7.9368 223.11 7.9368C221.702 7.9368 220.7 9.03057 220.7 10.4965C220.7 11.9611 221.702 13.0078 223.11 13.0078C224.211 13.0078 224.89 12.4438 225.247 11.7999L227.35 12.6691C226.719 14.1672 225.247 15.2139 223.11 15.2139C220.375 15.2139 218.239 13.2488 218.239 10.4965C218.239 7.83983 220.392 5.73072 223.094 5.73072Z" fill="white"/>
<path d="M227.655 10.4637C227.655 7.85621 229.695 5.7307 232.559 5.7307C235.424 5.7307 237.462 7.85621 237.462 10.4637C237.462 13.0719 235.424 15.2131 232.559 15.2131C229.695 15.2131 227.655 13.0719 227.655 10.4637ZM230.132 10.4637C230.132 11.8969 231.054 13.0235 232.559 13.0235C234.08 13.0235 234.986 11.8969 234.986 10.4637C234.986 9.01486 234.08 7.92038 232.559 7.92038C231.054 7.92038 230.132 9.01486 230.132 10.4637Z" fill="white"/>
<path d="M199.564 23.4962C199.273 26.3946 196.975 28.6328 193.447 28.6328C189.805 28.6328 187.136 25.9597 187.136 22.5465C187.136 19.1169 189.805 16.4445 193.447 16.4445C196.214 16.4445 197.961 17.8456 198.965 19.5361L196.667 20.5985C196.084 19.6809 195.097 18.7789 193.447 18.7789C191.327 18.7789 189.692 20.4053 189.692 22.5465C189.692 24.672 191.359 26.282 193.447 26.282C195.211 26.282 196.57 25.3315 196.829 23.7864H192.702V21.7415H199.612C199.628 22.0959 199.661 22.6755 199.564 23.4962Z" fill="white"/>
<path d="M209.835 19.294V28.4228H207.375V27.0545C206.631 27.8103 205.562 28.5996 204.155 28.5996C202.148 28.5996 200.757 27.1344 200.757 24.6873V19.294H203.217V24.3172C203.217 25.6534 204.009 26.3942 205.174 26.3942C206.436 26.3942 207.375 25.5244 207.375 24.3015V19.294H209.835Z" fill="white"/>
<path d="M217.124 27.3759C216.574 28.1488 215.554 28.583 214.308 28.583C212.286 28.583 210.829 27.6012 210.829 25.7338C210.829 23.7858 212.738 22.8033 214.583 22.8033C215.409 22.8033 216.217 22.9166 217.059 23.1576C217.091 21.773 216.331 21.1776 215.004 21.1776C213.774 21.1776 212.479 21.5641 211.913 21.8371L211.315 20.051C212.155 19.6482 213.644 19.117 215.359 19.117C218.24 19.117 219.519 20.5173 219.519 23.3024V28.4226H217.14L217.124 27.3759ZM217.059 25.219V24.6065C216.477 24.3976 215.861 24.3013 215.214 24.3013C214.163 24.3013 213.289 24.7356 213.289 25.5562C213.289 26.3933 214.065 26.8283 215.004 26.8283C216.088 26.8283 217.059 26.2971 217.059 25.219Z" fill="white"/>
<path d="M230.1 19.2933L225.974 29.098C225.148 31.0624 224.144 31.9473 222.236 31.9473C221.215 31.9473 220.504 31.7548 219.565 31.3034L220.342 29.3554C220.812 29.5644 221.313 29.7904 221.993 29.7904C222.882 29.7904 223.336 29.3554 223.773 28.3251L223.789 28.2774L219.759 19.2933H222.543L224.986 25.3305L227.43 19.2933H230.1Z" fill="white"/>
<path d="M236.495 27.3759C235.946 28.1488 234.925 28.583 233.68 28.583C231.657 28.583 230.2 27.6012 230.2 25.7338C230.2 23.7858 232.11 22.8033 233.955 22.8033C234.78 22.8033 235.589 22.9166 236.43 23.1576C236.463 21.773 235.702 21.1776 234.375 21.1776C233.146 21.1776 231.85 21.5641 231.285 21.8371L230.686 20.051C231.527 19.6482 233.016 19.117 234.731 19.117C237.612 19.117 238.89 20.5173 238.89 23.3024V28.4226H236.511L236.495 27.3759ZM236.43 25.219V24.6065C235.848 24.3976 235.233 24.3013 234.585 24.3013C233.534 24.3013 232.66 24.7356 232.66 25.5562C232.66 26.3933 233.436 26.8283 234.375 26.8283C235.459 26.8283 236.43 26.2971 236.43 25.219Z" fill="white"/>
<path d="M249.488 19.2933V31.7861H247.044V27.2955C246.43 28.0677 245.475 28.5989 243.986 28.5989C241.591 28.5989 239.891 26.7151 239.891 23.8659C239.891 21.0167 241.591 19.1165 243.986 19.1165C245.475 19.1165 246.43 19.6477 247.044 20.4206V19.2933H249.488ZM247.077 23.8495C247.077 22.4328 246.268 21.3383 244.779 21.3383C243.29 21.3383 242.384 22.4328 242.384 23.8495C242.384 25.2984 243.29 26.3779 244.779 26.3779C246.268 26.3779 247.077 25.2984 247.077 23.8495Z" fill="white"/>
<path d="M259.903 19.294V28.4228H257.443V27.0545C256.699 27.8103 255.632 28.5996 254.223 28.5996C252.216 28.5996 250.825 27.1344 250.825 24.6873V19.294H253.284V24.3172C253.284 25.6534 254.077 26.3942 255.242 26.3942C256.504 26.3942 257.443 25.5244 257.443 24.3015V19.294H259.903Z" fill="white"/>
<path d="M262.77 18.3441C261.978 18.3441 261.347 17.7323 261.347 16.9922C261.347 16.2834 261.994 15.6717 262.77 15.6717C263.531 15.6717 264.162 16.2514 264.162 16.9922C264.162 17.7323 263.548 18.3441 262.77 18.3441ZM261.525 19.2938H263.985V28.4219H261.525V19.2938Z" fill="white"/>
</svg>
