<svg width="24" height="25" viewBox="0 0 24 25" fill="none" xmlns="http://www.w3.org/2000/svg">
<path d="M3.27 7.77021L12 12.8202L20.73 7.77021M12 22.8902V12.8102M21 16.8102V8.8102C20.9996 8.45948 20.9071 8.11501 20.7315 7.81137C20.556 7.50772 20.3037 7.25557 20 7.0802L13 3.0802C12.696 2.90467 12.3511 2.81226 12 2.81226C11.6489 2.81226 11.304 2.90467 11 3.0802L4 7.0802C3.69626 7.25557 3.44398 7.50772 3.26846 7.81137C3.09294 8.11501 3.00036 8.45948 3 8.8102V16.8102C3.00036 17.1609 3.09294 17.5054 3.26846 17.809C3.44398 18.1127 3.69626 18.3648 4 18.5402L11 22.5402C11.304 22.7157 11.6489 22.8082 12 22.8082C12.3511 22.8082 12.696 22.7157 13 22.5402L20 18.5402C20.3037 18.3648 20.556 18.1127 20.7315 17.809C20.9071 17.5054 20.9996 17.1609 21 16.8102Z" stroke="#7F56D9" stroke-width="2" stroke-linecap="round" stroke-linejoin="round"/>
</svg>
