<svg width="24" height="24" viewBox="0 0 24 24" fill="none" xmlns="http://www.w3.org/2000/svg">
<path d="M7.80098 2H16.201C19.401 2 22.001 4.6 22.001 7.8V16.2C22.001 17.7383 21.3899 19.2135 20.3022 20.3012C19.2145 21.3889 17.7392 22 16.201 22H7.80098C4.60098 22 2.00098 19.4 2.00098 16.2V7.8C2.00098 6.26174 2.61205 4.78649 3.69976 3.69878C4.78747 2.61107 6.26272 2 7.80098 2ZM7.60098 4C6.6462 4 5.73052 4.37928 5.05539 5.05442C4.38026 5.72955 4.00098 6.64522 4.00098 7.6V16.4C4.00098 18.39 5.61098 20 7.60098 20H16.401C17.3558 20 18.2714 19.6207 18.9466 18.9456C19.6217 18.2705 20.001 17.3548 20.001 16.4V7.6C20.001 5.61 18.391 4 16.401 4H7.60098ZM17.251 5.5C17.5825 5.5 17.9004 5.6317 18.1349 5.86612C18.3693 6.10054 18.501 6.41848 18.501 6.75C18.501 7.08152 18.3693 7.39946 18.1349 7.63388C17.9004 7.8683 17.5825 8 17.251 8C16.9195 8 16.6015 7.8683 16.3671 7.63388C16.1327 7.39946 16.001 7.08152 16.001 6.75C16.001 6.41848 16.1327 6.10054 16.3671 5.86612C16.6015 5.6317 16.9195 5.5 17.251 5.5ZM12.001 7C13.3271 7 14.5988 7.52678 15.5365 8.46447C16.4742 9.40215 17.001 10.6739 17.001 12C17.001 13.3261 16.4742 14.5979 15.5365 15.5355C14.5988 16.4732 13.3271 17 12.001 17C10.6749 17 9.40312 16.4732 8.46544 15.5355C7.52776 14.5979 7.00098 13.3261 7.00098 12C7.00098 10.6739 7.52776 9.40215 8.46544 8.46447C9.40312 7.52678 10.6749 7 12.001 7ZM12.001 9C11.2053 9 10.4423 9.31607 9.87966 9.87868C9.31705 10.4413 9.00098 11.2044 9.00098 12C9.00098 12.7956 9.31705 13.5587 9.87966 14.1213C10.4423 14.6839 11.2053 15 12.001 15C12.7966 15 13.5597 14.6839 14.1223 14.1213C14.6849 13.5587 15.001 12.7956 15.001 12C15.001 11.2044 14.6849 10.4413 14.1223 9.87868C13.5597 9.31607 12.7966 9 12.001 9Z" fill="white"/>
</svg>
