<svg width="87" height="20" viewBox="0 0 87 20" fill="none" xmlns="http://www.w3.org/2000/svg">
<g clip-path="url(#clip0_19_35123)">
<path d="M10.486 0C5.0279 0 0.585093 4.4456 0.582778 9.90963C0.582199 11.6562 1.03835 13.3611 1.90491 14.8639L0.5 20L5.74975 18.6218C7.19634 19.4114 8.82469 19.8274 10.482 19.8279H10.486C15.9436 19.8279 20.3864 15.3818 20.3887 9.91774C20.3899 7.26973 19.3607 4.77986 17.4909 2.90696C15.6212 1.03348 13.1349 0.00115861 10.486 0ZM10.486 18.1543H10.4826C9.00588 18.1543 7.55697 17.7563 6.2933 17.0061L5.99287 16.8277L2.87799 17.6457L3.70924 14.6061L3.51358 14.2944C2.68986 12.9829 2.25455 11.4668 2.25513 9.91079C2.25686 5.36902 5.94946 1.6742 10.4895 1.6742C12.6881 1.67478 14.7546 2.53273 16.3083 4.08991C17.8625 5.64651 18.7175 7.71637 18.717 9.91716C18.7152 14.4589 15.0226 18.1543 10.486 18.1543ZM15.0006 11.9853C14.7534 11.8613 13.5367 11.2623 13.3098 11.1795C13.0828 11.0966 12.9179 11.0555 12.7529 11.3034C12.5879 11.5514 12.1138 12.1093 11.9697 12.2744C11.8255 12.44 11.6808 12.4603 11.4336 12.3363C11.1865 12.2124 10.3888 11.9505 9.44408 11.1071C8.70834 10.4507 8.21167 9.63967 8.06753 9.39173C7.92339 9.14378 8.0519 9.00996 8.17636 8.88657C8.2875 8.77592 8.42354 8.5975 8.54741 8.45267C8.67129 8.30784 8.71239 8.20473 8.79459 8.03905C8.87679 7.87394 8.83569 7.72912 8.77375 7.60514C8.71181 7.48117 8.21688 6.26231 8.0108 5.76642C7.80994 5.28386 7.60617 5.34874 7.45393 5.34121C7.30979 5.33368 7.14482 5.33252 6.97984 5.33252C6.81486 5.33252 6.54685 5.39451 6.31993 5.64245C6.09302 5.8904 5.45395 6.4894 5.45395 7.70826C5.45395 8.92712 6.34077 10.1049 6.46407 10.27C6.58795 10.4351 8.20878 12.9365 10.691 14.0088C11.2814 14.2637 11.7422 14.4161 12.1017 14.5302C12.6944 14.7185 13.2339 14.6918 13.66 14.6281C14.1352 14.5568 15.1239 14.0291 15.33 13.4504C15.5361 12.8722 15.5361 12.3763 15.4741 12.2726C15.4122 12.1695 15.2472 12.1075 15 11.9835L15.0006 11.9853ZM32.5195 11.8341H32.4928L30.8512 5.20565H28.8726L27.2037 11.753H27.1771L25.6564 5.20565H23.5435L26.0871 14.8251H28.2272L29.8283 8.27714H29.8555L31.4839 14.8251H33.5834L36.1675 5.20565H34.0951L32.52 11.8341H32.5195ZM42.6132 8.45904C42.425 8.21226 42.1669 8.01935 41.8398 7.87974C41.5122 7.74128 41.0925 7.67176 40.5814 7.67176C40.2225 7.67176 39.8549 7.7633 39.4775 7.94809C39.1006 8.13173 38.7915 8.42602 38.5489 8.83038H38.5084V5.20565H36.5976V14.8245H38.5084V11.1737C38.5084 10.464 38.6248 9.95481 38.8586 9.64431C39.0919 9.33496 39.4688 9.1797 39.9892 9.1797C40.4465 9.1797 40.7649 9.32105 40.9449 9.60433C41.1243 9.88704 41.2141 10.3157 41.2141 10.8904V14.8245H43.1255V10.5405C43.1255 10.1095 43.0867 9.71672 43.0109 9.3616C42.9344 9.00765 42.8025 8.70641 42.6138 8.45904H42.6132ZM50.4864 13.2754V9.65184C50.4864 9.22894 50.3926 8.89005 50.2033 8.63457C50.0152 8.37852 49.7732 8.17866 49.4774 8.03499C49.181 7.89132 48.8534 7.79458 48.4945 7.74534C48.1356 7.6961 47.7813 7.67119 47.4317 7.67119C47.0461 7.67119 46.6623 7.70884 46.2815 7.78589C45.8994 7.86236 45.5567 7.99038 45.2517 8.16997C44.9466 8.34956 44.6948 8.58765 44.4985 8.88368C44.3006 9.18028 44.1883 9.55278 44.1616 10.0023H46.0725C46.1084 9.62519 46.2346 9.35523 46.4499 9.1936C46.6652 9.03198 46.961 8.95146 47.3379 8.95146C47.5081 8.95146 47.6673 8.96246 47.8155 8.98505C47.9631 9.00765 48.0933 9.05167 48.2056 9.11945C48.3179 9.18665 48.4076 9.28108 48.4748 9.40274C48.5419 9.52381 48.5755 9.68833 48.5755 9.89399C48.5842 10.0921 48.5257 10.2416 48.4007 10.3453C48.2745 10.449 48.1043 10.5277 47.889 10.581C47.6736 10.6355 47.427 10.6761 47.1486 10.7021C46.8702 10.7299 46.5877 10.7664 46.3011 10.8105C46.0134 10.8556 45.7286 10.9159 45.4467 10.9924C45.1642 11.0682 44.9119 11.1835 44.6925 11.3353C44.4725 11.4888 44.293 11.6927 44.1535 11.9488C44.0146 12.2048 43.9451 12.531 43.9451 12.9255C43.9451 13.2847 44.0059 13.5946 44.1269 13.8547C44.2479 14.116 44.4163 14.3309 44.6317 14.5018C44.847 14.6727 45.0983 14.7984 45.3854 14.8795C45.6719 14.96 45.9822 15.0006 46.3139 15.0006C46.7446 15.0006 47.1665 14.9374 47.5787 14.8123C47.9914 14.6854 48.3509 14.4665 48.656 14.1513C48.6647 14.2683 48.6803 14.383 48.7029 14.4948C48.7254 14.6067 48.7544 14.7173 48.7903 14.8245H50.7283C50.6386 14.6814 50.5755 14.4659 50.5396 14.178C50.5031 13.8906 50.4852 13.5905 50.4852 13.2754H50.4864ZM48.5755 12.1301C48.5755 12.239 48.5645 12.3827 48.5419 12.5617C48.5199 12.7419 48.4592 12.9186 48.3602 13.0941C48.2612 13.269 48.1084 13.4202 47.9023 13.5454C47.6962 13.6717 47.4045 13.7342 47.027 13.7342C46.8748 13.7342 46.7266 13.7209 46.583 13.6931C46.4395 13.6664 46.3139 13.6189 46.2062 13.5517C46.0985 13.4845 46.0134 13.3924 45.9503 13.2754C45.8878 13.1584 45.856 13.0153 45.856 12.845C45.856 12.6654 45.8878 12.5165 45.9503 12.4001C46.0134 12.2836 46.0962 12.1869 46.1998 12.1104C46.3023 12.0339 46.4239 11.9737 46.5628 11.9285C46.7017 11.8839 46.843 11.848 46.9871 11.8208C47.1393 11.7941 47.2922 11.7709 47.4444 11.7536C47.5978 11.7362 47.7431 11.713 47.882 11.6864C48.0215 11.6591 48.1512 11.6255 48.2728 11.585C48.3937 11.5444 48.4945 11.4894 48.5755 11.417V12.1307V12.1301ZM54.0533 5.77164H52.1419V7.85946H50.9848V9.13915H52.1419V13.2488C52.1419 13.5992 52.201 13.8819 52.3173 14.0974C52.4342 14.3129 52.5934 14.4798 52.7949 14.5962C52.9969 14.7132 53.2302 14.7915 53.4953 14.8314C53.7593 14.8714 54.0406 14.8923 54.3364 14.8923C54.5257 14.8923 54.7179 14.8876 54.9158 14.8795C55.1127 14.8702 55.2921 14.8529 55.4542 14.8251V13.3432C55.3639 13.3611 55.2701 13.3756 55.1711 13.3837C55.0727 13.393 54.9697 13.3976 54.862 13.3976C54.5396 13.3976 54.3237 13.3432 54.216 13.2354C54.1089 13.1277 54.0551 12.9122 54.0551 12.5883V9.13915H55.4548V7.85946H54.0551V5.77164H54.0533ZM61.9526 11.7738C61.8269 11.5537 61.6608 11.3695 61.4547 11.2212C61.2487 11.0735 61.0125 10.9541 60.7485 10.8637C60.4834 10.7745 60.2119 10.6986 59.934 10.6355C59.6649 10.5724 59.4009 10.5138 59.1404 10.46C58.8799 10.4061 58.649 10.3453 58.4469 10.2786C58.2455 10.2109 58.0822 10.124 57.9566 10.0156C57.8304 9.90789 57.7685 9.76944 57.7685 9.59796C57.7685 9.45429 57.8032 9.33959 57.8756 9.25443C57.9474 9.16927 58.0354 9.10439 58.1384 9.05863C58.242 9.01402 58.3555 8.98505 58.4811 8.97115C58.6067 8.95783 58.7236 8.95146 58.8307 8.95146C59.1717 8.95146 59.4681 9.01634 59.7199 9.14668C59.9705 9.27703 60.11 9.52613 60.1361 9.89399H61.9531C61.9172 9.46298 61.8073 9.10613 61.6232 8.82285C61.4397 8.54015 61.2081 8.31364 60.9303 8.14274C60.6524 7.97185 60.3364 7.85077 59.9809 7.77894C59.6267 7.7071 59.2614 7.67119 58.8851 7.67119C58.5089 7.67119 58.1396 7.70479 57.7818 7.77141C57.4223 7.83918 57.0993 7.95621 56.8128 8.12247C56.5251 8.28873 56.2947 8.51524 56.1193 8.80257C55.9439 9.08991 55.8565 9.45835 55.8565 9.90731C55.8565 10.2126 55.9196 10.4716 56.0458 10.6824C56.1702 10.8939 56.337 11.0682 56.5425 11.2079C56.7497 11.3469 56.9853 11.4599 57.2498 11.5444C57.5144 11.6308 57.7859 11.7043 58.0637 11.7675C58.7462 11.9111 59.2782 12.0548 59.6591 12.1991C60.0406 12.3427 60.231 12.5582 60.231 12.8456C60.231 13.0165 60.1911 13.1566 60.11 13.269C60.029 13.382 59.9283 13.4712 59.8073 13.5384C59.6857 13.6062 59.5508 13.656 59.4032 13.6867C59.255 13.7186 59.1132 13.7342 58.9789 13.7342C58.7902 13.7342 58.609 13.7116 58.4342 13.667C58.2588 13.6218 58.1042 13.5523 57.9694 13.4579C57.8351 13.3635 57.7245 13.2424 57.6394 13.0941C57.5549 12.9458 57.5115 12.7691 57.5115 12.5617H55.695C55.7135 13.0286 55.8183 13.4173 56.0116 13.7273C56.2038 14.0372 56.4504 14.2863 56.7514 14.4751C57.0519 14.6634 57.3957 14.7984 57.7818 14.8795C58.1668 14.96 58.5615 15.0006 58.965 15.0006C59.3685 15.0006 59.7482 14.9623 60.1297 14.8865C60.5112 14.81 60.8498 14.6773 61.1456 14.4885C61.4426 14.3002 61.6811 14.0511 61.8657 13.7412C62.0492 13.4307 62.1413 13.0472 62.1413 12.5889C62.1413 12.2651 62.0787 11.994 61.9531 11.7744L61.9526 11.7738ZM65.7476 5.20565L62.1141 14.8251H64.2402L64.9933 12.6828H68.5869L69.3129 14.8251H71.5073L67.9143 5.20565H65.747H65.7476ZM65.5462 11.1071L66.7977 7.57734H66.8243L68.0359 11.1071H65.5462ZM78.1157 8.80315C77.8558 8.46194 77.5281 8.18793 77.1333 7.98169C76.7386 7.77488 76.2679 7.67176 75.7209 7.67176C75.2897 7.67176 74.8954 7.75692 74.5366 7.92724C74.1765 8.09813 73.8813 8.37215 73.6486 8.74928H73.6214V7.85946H71.8037V17.2639H73.7163V13.963H73.7423C73.9756 14.3048 74.2743 14.5626 74.6384 14.737C75.0008 14.9119 75.3985 15 75.8292 15C76.3409 15 76.7872 14.9004 77.1681 14.7034C77.5496 14.5059 77.8679 14.2405 78.1238 13.908C78.3796 13.5755 78.5695 13.1943 78.6963 12.7633C78.8207 12.3317 78.8844 11.8827 78.8844 11.4158C78.8844 10.9217 78.8207 10.4484 78.6963 9.99421C78.5695 9.54119 78.3773 9.14321 78.1168 8.80199L78.1157 8.80315ZM76.8914 12.1846C76.837 12.4545 76.7449 12.6897 76.6153 12.8919C76.485 13.0941 76.3148 13.2586 76.103 13.3837C75.8928 13.5094 75.63 13.5732 75.3163 13.5732C75.0025 13.5732 74.7519 13.51 74.5366 13.3837C74.3212 13.2586 74.1481 13.0941 74.0179 12.8919C73.8876 12.6897 73.7939 12.4545 73.7354 12.1846C73.6769 11.9152 73.6486 11.6412 73.6486 11.3637C73.6486 11.0862 73.6746 10.7971 73.7285 10.5283C73.7829 10.259 73.8743 10.0209 74.0052 9.81346C74.1342 9.60723 74.3056 9.43923 74.5169 9.30889C74.7276 9.17854 74.9892 9.1125 75.3036 9.1125C75.6179 9.1125 75.8674 9.17854 76.0775 9.30889C76.2882 9.43865 76.4613 9.60897 76.5956 9.82042C76.7299 10.0319 76.826 10.2723 76.885 10.5411C76.9441 10.8105 76.9718 11.085 76.9718 11.3637C76.9718 11.6423 76.9458 11.9158 76.892 12.1846H76.8914ZM86.3113 9.99537C86.1857 9.54235 85.9929 9.14437 85.7324 8.80315C85.4719 8.46194 85.1454 8.18793 84.7507 7.98169C84.3553 7.77488 83.8841 7.67176 83.3371 7.67176C82.907 7.67176 82.5116 7.75692 82.1533 7.92724C81.7944 8.09813 81.498 8.37215 81.2647 8.74928H81.2387V7.85946H79.4216V17.2639H81.3325V13.963H81.3597C81.5929 14.3048 81.8916 14.5626 82.2546 14.737C82.6175 14.9119 83.0152 15 83.4459 15C83.957 15 84.4028 14.9004 84.7848 14.7034C85.1657 14.5059 85.4847 14.2405 85.7399 13.908C85.9964 13.5755 86.1863 13.1943 86.3119 12.7633C86.4381 12.3317 86.5006 11.8827 86.5006 11.4158C86.5006 10.9217 86.4381 10.4484 86.3119 9.99421L86.3113 9.99537ZM84.5075 12.1846C84.4543 12.4545 84.3622 12.6897 84.232 12.8919C84.1012 13.0941 83.931 13.2586 83.7203 13.3837C83.5096 13.5094 83.2473 13.5732 82.933 13.5732C82.6187 13.5732 82.3675 13.51 82.1521 13.3837C81.9362 13.2586 81.7643 13.0941 81.6335 12.8919C81.5038 12.6897 81.4094 12.4545 81.351 12.1846C81.2925 11.9152 81.2636 11.6412 81.2636 11.3637C81.2636 11.0862 81.2908 10.7971 81.3446 10.5283C81.3984 10.259 81.4905 10.0209 81.6207 9.81346C81.7504 9.60723 81.9212 9.43923 82.1324 9.30889C82.3426 9.17854 82.6054 9.1125 82.9197 9.1125C83.234 9.1125 83.4824 9.17854 83.6931 9.30889C83.9044 9.43865 84.0769 9.60897 84.2117 9.82042C84.3466 10.0319 84.4433 10.2723 84.5012 10.5411C84.5602 10.8105 84.5886 11.085 84.5886 11.3637C84.5886 11.6423 84.5614 11.9158 84.5075 12.1846Z" fill="#25D366"/>
</g>
<defs>
<clipPath id="clip0_19_35123">
<rect width="86" height="20" fill="white" transform="translate(0.5)"/>
</clipPath>
</defs>
</svg>
