<svg width="24" height="25" viewBox="0 0 24 25" fill="none" xmlns="http://www.w3.org/2000/svg">
<path fill-rule="evenodd" clip-rule="evenodd" d="M16.0004 9.5C16.0004 10.5609 15.5789 11.5783 14.8288 12.3284C14.0786 13.0786 13.0612 13.5 12.0004 13.5C10.9395 13.5 9.92208 13.0786 9.17194 12.3284C8.42179 11.5783 8.00037 10.5609 8.00037 9.5C8.00037 8.43913 8.42179 7.42172 9.17194 6.67157C9.92208 5.92143 10.9395 5.5 12.0004 5.5C13.0612 5.5 14.0786 5.92143 14.8288 6.67157C15.5789 7.42172 16.0004 8.43913 16.0004 9.5ZM14.0004 9.5C14.0004 10.0304 13.7897 10.5391 13.4146 10.9142C13.0395 11.2893 12.5308 11.5 12.0004 11.5C11.4699 11.5 10.9612 11.2893 10.5862 10.9142C10.2111 10.5391 10.0004 10.0304 10.0004 9.5C10.0004 8.96957 10.2111 8.46086 10.5862 8.08579C10.9612 7.71071 11.4699 7.5 12.0004 7.5C12.5308 7.5 13.0395 7.71071 13.4146 8.08579C13.7897 8.46086 14.0004 8.96957 14.0004 9.5Z" fill="#717680"/>
<path fill-rule="evenodd" clip-rule="evenodd" d="M12.0001 1.5C5.92512 1.5 1.00012 6.425 1.00012 12.5C1.00012 18.575 5.92512 23.5 12.0001 23.5C18.0751 23.5 23.0001 18.575 23.0001 12.5C23.0001 6.425 18.0751 1.5 12.0001 1.5ZM3.00012 12.5C3.00012 14.59 3.71312 16.514 4.90812 18.042C5.74756 16.9401 6.83028 16.0471 8.07176 15.4327C9.31325 14.8183 10.6799 14.4991 12.0651 14.5C13.4325 14.4984 14.7822 14.8091 16.0113 15.4084C17.2403 16.0077 18.3163 16.8797 19.1571 17.958C20.0236 16.8216 20.607 15.4952 20.859 14.0886C21.1111 12.682 21.0246 11.2355 20.6066 9.86898C20.1887 8.50243 19.4513 7.25505 18.4556 6.23004C17.4599 5.20503 16.2344 4.43186 14.8805 3.97451C13.5266 3.51716 12.0833 3.38877 10.67 3.59997C9.25664 3.81117 7.91391 4.35589 6.75289 5.18905C5.59187 6.02222 4.64593 7.11987 3.99335 8.3912C3.34077 9.66252 3.0003 11.071 3.00012 12.5ZM12.0001 21.5C9.93403 21.5033 7.93027 20.7926 6.32812 19.488C6.97293 18.5646 7.83132 17.8107 8.8302 17.2905C9.82908 16.7702 10.9389 16.499 12.0651 16.5C13.1773 16.499 14.2737 16.7635 15.2631 17.2713C16.2526 17.7792 17.1065 18.5158 17.7541 19.42C16.1396 20.767 14.1028 21.5033 12.0001 21.5Z" fill="#717680"/>
</svg>
