<svg width="24" height="24" viewBox="0 0 24 24" fill="none" xmlns="http://www.w3.org/2000/svg">
<path d="M10.001 15L15.191 12L10.001 9V15ZM21.561 7.17C21.691 7.64 21.781 8.27 21.841 9.07C21.911 9.87 21.941 10.56 21.941 11.16L22.001 12C22.001 14.19 21.841 15.8 21.561 16.83C21.311 17.73 20.731 18.31 19.831 18.56C19.361 18.69 18.501 18.78 17.181 18.84C15.881 18.91 14.691 18.94 13.591 18.94L12.001 19C7.81098 19 5.20098 18.84 4.17098 18.56C3.27098 18.31 2.69098 17.73 2.44098 16.83C2.31098 16.36 2.22098 15.73 2.16098 14.93C2.09098 14.13 2.06098 13.44 2.06098 12.84L2.00098 12C2.00098 9.81 2.16098 8.2 2.44098 7.17C2.69098 6.27 3.27098 5.69 4.17098 5.44C4.64098 5.31 5.50098 5.22 6.82098 5.16C8.12098 5.09 9.31098 5.06 10.411 5.06L12.001 5C16.191 5 18.801 5.16 19.831 5.44C20.731 5.69 21.311 6.27 21.561 7.17Z" fill="white"/>
</svg>
